<svg xmlns="http://www.w3.org/2000/svg" viewBox="0 0 2400 1600">
  <defs>
    <linearGradient id="bg2" x1="0" x2="1" y1="0" y2="1">
      <stop offset="0" stop-color="#0f1b2f"/>
      <stop offset="1" stop-color="#1d3557"/>
    </linearGradient>
    <radialGradient id="glow" cx="0.35" cy="0.2" r="0.6">
      <stop offset="0" stop-color="#98c1ff" stop-opacity="0.35"/>
      <stop offset="1" stop-color="#98c1ff" stop-opacity="0"/>
    </radialGradient>
  </defs>
  <rect width="2400" height="1600" fill="url(#bg2)"/>
  <rect width="2400" height="1600" fill="url(#glow)"/>
  <g fill="#274e78" opacity="0.76">
    <path d="M220 1180c220-260 520-370 840-274 212 64 396 44 566-72 176-120 360-124 554-16v618H220v-256z"/>
  </g>
  <g fill="#3e6b94" opacity="0.72">
    <circle cx="560" cy="720" r="110"/>
    <circle cx="760" cy="640" r="82"/>
    <circle cx="1460" cy="760" r="132"/>
    <circle cx="1710" cy="680" r="88"/>
    <circle cx="1880" cy="840" r="76"/>
  </g>
  <g fill="#b9d6ff" opacity="0.8">
    <circle cx="280" cy="140" r="4"/>
    <circle cx="620" cy="220" r="3"/>
    <circle cx="980" cy="120" r="5"/>
    <circle cx="1300" cy="260" r="3"/>
    <circle cx="1720" cy="180" r="4"/>
    <circle cx="2100" cy="130" r="3"/>
  </g>
</svg>
